<?xml version="1.0" encoding="UTF-8"?>
<svg id="Layer_1" data-name="Layer 1" xmlns="http://www.w3.org/2000/svg" viewBox="0 0 680.6 152.73">
  <g>
    <path d="M119.76,18.17v28.18l-50.05,27.49,50.05,29.43v27.2c0,1.89-1.53,3.41-3.41,3.41H3.41c-1.89,0-3.41-1.53-3.41-3.41V18.17c0-1.89,1.53-3.41,3.41-3.41h112.93c1.89,0,3.41,1.53,3.41,3.41Z"/>
    <polygon points="171.82 17.76 171.82 133.89 119.76 103.28 119.76 46.35 171.82 17.76"/>
  </g>
  <g>
    <path d="M286.34.41v69.15l21.95-1.49V22.59h34.43v43.15l21.95-1.49V.41h-78.33ZM342.72,86.98v41.94h-34.43v-44.27l-21.95-1.49v67.59h78.33v-62.28l-21.95-1.49Z"/>
    <path d="M509.68.41v54.01l21.95-1.49v-30.34h34.44v28l21.95-1.49V.41h-78.34ZM566.07,102.14v26.78h-34.44v-29.12l-21.95-1.49v52.44h78.34v-47.12l-21.95-1.49Z"/>
    <polygon points="408.73 61.26 386.82 62.75 376.68 0 399.47 .41 408.73 61.26"/>
    <polygon points="423.27 92.45 444.02 93.86 434.32 151.31 401.12 151.31 391.26 90.28 413.37 91.78 418.27 124 423.27 92.45"/>
    <polygon points="459.86 0 449.99 58.46 428.59 59.91 438.35 .41 459.86 0"/>
    <polygon points="497.67 2.28 497.67 55.23 471.87 56.98 471.87 2.28 497.67 2.28"/>
    <polygon points="471.87 95.75 497.67 97.5 497.67 150.75 471.87 150.75 471.87 95.75"/>
    <polygon points="600.03 104.44 624.47 106.1 624.47 150.75 600.03 150.75 600.03 104.44"/>
    <polygon points="623.86 .51 641.42 45.48 600.03 48.29 600.03 .51 623.86 .51"/>
    <polygon points="680.6 .51 680.6 42.82 655.29 44.54 655.29 .51 680.6 .51"/>
    <polygon points="644.31 107.44 680.6 109.91 680.6 150.08 661.33 150.08 644.31 107.44"/>
    <polygon points="196.82 77.09 218.85 78.58 218.85 152.73 196.82 152.73 196.82 77.09"/>
    <polygon points="222.25 78.81 248.31 80.58 236.8 115.12 235.57 115 234.34 115.12 222.25 78.81"/>
    <polygon points="274.33 .41 274.33 70.38 252.3 71.87 252.3 68.62 251.19 71.95 220.65 74.02 218.85 68.62 218.85 74.14 196.82 75.63 196.82 .41 215.56 .41 235.51 49.08 235.57 48.89 235.63 49.08 255.59 .41 274.33 .41"/>
    <polygon points="252.3 80.85 274.33 82.35 274.33 152.73 252.3 152.73 252.3 80.85"/>
  </g>
  <g>
    <path d="M527.77,62.1c1.32-.07,2.51.62,3.53,2.09,1.02,1.48,1.58,3.3,1.64,5.46,0,.31.02.62.03.93.06,2.16-.4,4.02-1.33,5.53-.94,1.52-2.08,2.27-3.4,2.26-.81,0-1.62,0-2.43-.01-.03,4.34-.18,8.69-.45,13.02-1.55-.08-3.1-.16-4.65-.25.23-3.74.38-7.48.43-11.23.03-1.87.03-3.74,0-5.61-.02-2.08-.07-4.17-.15-6.25-.07-1.86-.17-3.72-.28-5.58,2.36-.12,4.71-.25,7.07-.38ZM526.39,74.64c.54,0,1.01-.42,1.39-1.26.38-.84.55-2.15.49-3.94-.03-1.09-.15-1.87-.35-2.33-.2-.46-.45-.73-.76-.82-.31-.09-.64-.12-1-.11-.2,0-.4.02-.6.02.13,2.81.21,5.62.23,8.44.2,0,.4,0,.6,0Z"/>
    <path d="M546.92,61.09c.66,10.47.66,20.98,0,31.45-1.54-.08-3.08-.16-4.62-.25.65-10.31.65-20.65,0-30.96,1.54-.08,3.08-.16,4.62-.25Z"/>
    <path d="M569,72.55c-1.55.02-3.1.04-4.65.06,0-.02,0-.03,0-.05-.03-1.92-.08-3.84-.16-5.76-.02-.64-.17-1.18-.44-1.62-.19-.3-.39-.5-.63-.6-.11-.03-.21-.04-.32-.04-.13,0-.26.03-.38.09-.59.47-.86,1.22-.82,2.25.25,6.61.25,13.23,0,19.85-.03.65.08,1.2.31,1.66.14.27.3.47.51.59.12.05.24.08.38.09.13,0,.26-.01.38-.06.63-.42.97-1.15,1.01-2.2.07-1.91.12-3.82.15-5.73,1.54.02,3.09.04,4.63.06h.02c-.04,2.3-.1,4.59-.2,6.89-.06,1.53-.56,2.81-1.47,3.85-.92,1.03-2.01,1.55-3.27,1.56-.08.01-.16.02-.24.01-.87-.05-1.75-.09-2.62-.14-.07,0-.13-.02-.18-.03-1.25-.18-2.26-.81-3.03-1.87-.78-1.06-1.13-2.33-1.07-3.8.04-.95.07-1.89.1-2.84.16-5.3.16-10.61,0-15.92-.03-.95-.06-1.91-.1-2.86-.06-1.47.3-2.73,1.09-3.81.79-1.08,1.8-1.7,3.05-1.86.07,0,.13,0,.2-.01.87-.05,1.75-.09,2.62-.14.06,0,.12,0,.18,0,1.28.03,2.37.55,3.28,1.58.91,1.02,1.4,2.31,1.46,3.83.1,2.32.16,4.64.2,6.96Z"/>
    <path d="M581.42,94.37c.59-9.42.71-18.85.34-28.28-1.07.03-2.13.07-3.2.1-.09-2.26-.2-4.51-.34-6.77,1.06-.06,2.13-.11,3.19-.17,1.54-.08,3.08-.16,4.62-.25,1.06-.06,2.12-.11,3.18-.17.15,2.33.27,4.66.35,7-1.06.03-2.12.07-3.18.1.37,9.56.25,19.13-.35,28.67-1.54-.08-3.08-.16-4.62-.25Z"/>
    <path d="M606.3,57.93c1.49-.08,2.99-.16,4.49-.24.13,2.13.25,4.26.33,6.4.31,7.36.35,14.74.12,22.1-.03,1.11-.07,2.23-.12,3.34-.07,1.69-.55,3.12-1.42,4.29-.88,1.16-1.94,1.78-3.18,1.86-.14.03-.27.04-.4.03-.84-.04-1.68-.09-2.52-.13-.12,0-.24-.03-.35-.07-1.22-.21-2.2-.92-2.96-2.13-.76-1.21-1.09-2.62-1.02-4.26.04-1.08.08-2.15.12-3.23.22-7.12.18-14.25-.12-21.38-.09-2.06-.19-4.12-.32-6.19,1.5-.08,3-.16,4.5-.24.05,0,.09,0,.14,0,.63,10.03.75,20.08.37,30.12-.03.74.07,1.36.3,1.88.06.13.12.25.18.36.2.19.44.29.7.3.27.01.5-.07.71-.24.42-.55.66-1.29.69-2.21.39-10.11.26-20.24-.38-30.34.05,0,.09,0,.14,0Z"/>
    <path d="M632.84,66.98c.09,3.08-.28,5.45-1.07,7.1-.8,1.65-1.88,2.56-3.23,2.73,2.75.57,4.23,3.29,4.27,8.13,0,.29.01.58.02.88.02.29.02.57.02.82-.11,3.46-.27,6.92-.48,10.38-1.41-.07-2.82-.15-4.23-.22-.14,0-.28-.01-.42-.02.24-3.91.42-7.81.52-11.72,0-.07,0-.13,0-.2,0,0,.01,0,.02,0,0-.19.01-.39.01-.61.04-1.69-.11-2.99-.43-3.89-.32-.9-.72-1.35-1.18-1.35-.3,0-.6,0-.89,0-.01,1.93-.04,3.87-.09,5.8-.1,3.95-.27,7.9-.52,11.84-1.55-.08-3.1-.16-4.64-.25.24-3.9.42-7.8.51-11.7.23-9.17.06-18.35-.52-27.51,2.38-.13,4.76-.25,7.14-.38,1.29-.07,2.47.88,3.5,2.86,1.03,1.99,1.6,4.43,1.69,7.32ZM628.25,69.61c0-.29,0-.58,0-.87-.02-1.08-.07-2.12-.15-3.12-.09-1-.27-1.83-.53-2.5-.26-.67-.68-.99-1.25-.96-.3.01-.6.02-.89.03.19,4.14.3,8.28.33,12.42.3,0,.6,0,.89,0,.47,0,.85-.4,1.17-1.19.32-.79.46-2.07.42-3.82Z"/>
    <path d="M651.14,98.07c-1.48-.08-2.96-.16-4.44-.24-1.26-.07-2.51-.13-3.77-.2-.28-.02-.57-.03-.85-.05.87-13.84.87-27.72,0-41.56.28-.02.57-.03.85-.05,1.26-.07,2.52-.13,3.77-.2,1.48-.08,2.96-.16,4.44-.24.17,2.76.31,5.52.42,8.28-1.48.05-2.97.1-4.45.14.12,3.24.2,6.47.23,9.71,1.48-.01,2.97-.02,4.45-.04.02,1.81.02,3.62,0,5.43-1.48,0-2.97-.02-4.45-.02-.02,3.53-.1,7.06-.24,10.59,1.48.05,2.97.1,4.45.14-.11,2.76-.25,5.52-.42,8.28Z"/>
    <path d="M669.15,68.1c-.17,0-.33,0-.5.01-.04-1.56-.09-3.11-.15-4.67-.03-.85-.19-1.58-.47-2.19-.18-.4-.39-.66-.63-.77-.11-.04-.22-.06-.32-.05-.13,0-.26.04-.37.11-.25.2-.45.57-.59,1.11-.16.62-.22,1.3-.2,2.04.01.25.02.5.03.73.04,1.14.08,2.29.1,3.43.06,1.27.24,2.45.56,3.54.32,1.09.88,2.03,1.69,2.84.13.13.28.26.44.41.16.15.33.31.5.48.6.53,1.21,1.25,1.84,2.15.63.9,1.17,2.07,1.61,3.51.44,1.44.64,3.25.58,5.42-.05,1.83-.11,3.66-.19,5.5-.08,1.94-.56,3.59-1.42,4.95-.87,1.36-1.91,2.11-3.11,2.26-1.19-.05-2.38-.1-3.58-.16-1.18-.29-2.11-1.15-2.82-2.55-.7-1.4-1.01-3.04-.93-4.92.07-1.56.12-3.12.16-4.68,1.38.03,2.75.07,4.13.1.17,0,.33,0,.5.01-.03,1.11-.07,2.22-.11,3.34-.03.85.06,1.58.29,2.21.13.37.3.63.5.78.12.07.24.1.37.11.13,0,.26-.02.38-.08.63-.57.99-1.55,1.04-2.94.04-.94.07-1.88.09-2.81.06-2-.07-3.79-.39-5.36-.32-1.57-.95-2.76-1.91-3.57-.05-.04-.1-.08-.14-.13-.17-.13-.34-.27-.5-.41-1.32-1.17-2.34-2.64-3.08-4.4-.73-1.77-1.12-4.08-1.21-6.95-.04-1.39-.09-2.79-.15-4.18-.08-1.88.23-3.52.93-4.92.71-1.4,1.64-2.25,2.81-2.55,1.19-.05,2.38-.11,3.58-.16,1.2.15,2.25.9,3.11,2.26.86,1.36,1.34,3.01,1.43,4.95.09,2.05.15,4.09.2,6.14-1.38.03-2.77.06-4.15.09Z"/>
  </g>
</svg>